# xmcd
#
# Track frame offsets:
#	182
#	14510
#	30932
#	50807
#	74357
#	90482
#	109682
#	128607
#	148532
#	171795
#	189782
#	204382
#	220457
#	238932
#	257732
#	276207
#
# Disc length: 3894 seconds
#
# Revision: 5
# Processed by: cddbd v1.5.2PL0 Copyright (c) Steve Scherf et al.
# Submitted via: audiograbber 1.83.01
#
DISCID=e40f3410
DTITLE=Various Artist - Black And Beautiful
DYEAR=1991
DGENRE=R&B
TTITLE0=Ice MC - Happy Weekend [Single Version]
TTITLE1=Timmy Thomas - (Dying Inside) To Hold You [Heartbreak Radio Version]
TTITLE2=Marva Hicks - I Got You Where I Want
TTITLE3=Massive - Unfinished Sympathy [Original]
TTITLE4=Black Box - Strike It Up [Sensitive Mix]
TTITLE5=Billy Preston - Heroes
TTITLE6=Victoria Miles - Just The Way It Is [Radio Version]
TTITLE7=Tony! Toni! Toné! - It Never Rains In Southern California [SP Edit]
TTITLE8=Patti LaBelle - Yo Mister
TTITLE9=The Neville Brothers - Fallin' Rain
TTITLE10=James Brown - It's A Man's World
TTITLE11=Oh Well - Quiet [Club-Mix - Radio Edit]
TTITLE12=Kool and The Gang - Victory [New 1991 Version - Glory Edit]
TTITLE13=Gloria Gaynor - Reach Out I'll Be There
TTITLE14=Junior Reid - Actions Speak Louder Than Words
TTITLE15=Bridgett Grace - Take Me Away [Original Radio Mix]
EXTD=
EXTT0=
EXTT1=
EXTT2=
EXTT3=
EXTT4=
EXTT5=
EXTT6=
EXTT7=
EXTT8=
EXTT9=
EXTT10=
EXTT11=
EXTT12=
EXTT13=
EXTT14=
EXTT15=
PLAYORDER=
